<svg width="522" height="261" viewBox="0 0 522 261" fill="none" xmlns="http://www.w3.org/2000/svg">
<path d="M49.0638 96.0638L13 60H83.1526L49.0638 96.0638Z" fill="#826625"/>
<path d="M83.1583 130.158L48.082 95.0814L83.1583 60.004L118.235 95.0814L83.1583 130.158Z" fill="#4D3A16"/>
<path d="M13.0325 200.297L50.086 163.242L83.1851 200.297H13.0325Z" fill="#F47026"/>
<path d="M118.226 165.228L83.1567 130.159V130.16L48.0804 95.0827L13.0051 130.16L48.0804 165.235L83.149 200.304L118.226 165.228Z" fill="#EE2528"/>
<path d="M489.637 96.0862H478.752C472.547 96.0862 467.517 91.0934 467.517 84.9348C467.517 78.7762 472.547 73.7834 478.752 73.7834H503.722V68.8594H478.623C469.77 68.8594 462.593 75.9919 462.593 84.79C462.593 93.5892 469.77 100.721 478.623 100.721H488.081V100.692L489.497 100.834C496.183 100.834 501.313 106.814 501.313 113.477C501.313 120.14 496.183 125.541 489.497 125.541H462.593V130.554H489.637C499.176 130.554 506.91 122.839 506.91 113.32C506.91 103.803 499.176 96.0862 489.637 96.0862ZM205.643 125.541H179.607V101.124H205.643C212.329 101.124 217.459 106.814 217.459 113.477C217.459 120.14 212.329 125.541 205.643 125.541ZM179.607 73.7834H201.682C207.887 73.7834 212.917 78.7762 212.917 84.9348C212.917 91.0934 207.887 96.0862 201.682 96.0862H179.607V73.7834ZM211.849 97.2013C215.499 94.2807 217.841 89.8105 217.841 84.79C217.841 75.9919 210.664 68.8594 201.811 68.8594H174.683V130.554H205.783C215.322 130.554 223.054 122.839 223.054 113.32C223.054 105.935 218.391 99.6537 211.849 97.2013ZM253.749 108.541L267.548 73.0387L281.341 108.541H253.749ZM263.889 68.8594L239.909 130.554H245.193L251.834 113.465H283.255L289.894 130.554H295.175L271.205 68.8594H263.889ZM398.292 130.554H438.841V125.63H403.216V101.01H433.628V96.0862H403.216V73.7834H438.841V68.8594H398.292V130.554ZM356.772 124.631L344.172 68.8594H337.595L324.911 124.631L312.31 68.8594H307.262L321.201 130.554H328.646L340.895 76.6979L353.062 130.554H360.506L374.539 68.8594H369.457L356.772 124.631Z" fill="white"/>
<path d="M177.723 163.376C177.723 162.1 178.198 161.109 179.149 160.403C180.099 159.67 181.443 159.303 183.181 159.303V184.476C183.181 185.779 182.706 186.784 181.756 187.49C180.805 188.196 179.461 188.549 177.723 188.549V163.376ZM193.243 163.621C193.243 162.29 193.691 161.245 194.587 160.484C195.483 159.697 196.692 159.303 198.212 159.303L211.98 180.81L212.387 180.484L210.717 177.714V159.303C212.482 159.303 213.813 159.643 214.709 160.321C215.632 161 216.094 162.005 216.094 163.336V184.843C216.094 185.847 215.659 186.716 214.79 187.449C213.949 188.183 212.971 188.549 211.858 188.549L197.357 165.861L196.95 166.228L198.62 168.997V184.517C198.62 185.847 198.158 186.852 197.235 187.531C196.339 188.21 195.008 188.549 193.243 188.549V163.621ZM232.849 164.395H223.032C223.032 161.245 224.458 159.67 227.309 159.67H248.124C248.124 162.82 246.685 164.395 243.806 164.395H238.307V184.517C238.307 185.82 237.846 186.825 236.922 187.531C235.999 188.21 234.641 188.549 232.849 188.549V164.395ZM256.103 162.154C256.103 161.476 256.361 160.892 256.877 160.403C257.42 159.914 258.072 159.67 258.832 159.67H276.999C276.999 161.299 276.714 162.494 276.144 163.254C275.601 163.987 274.705 164.354 273.455 164.354H261.561V171.441H272.396C272.396 173.071 272.111 174.266 271.541 175.026C270.998 175.759 270.102 176.126 268.853 176.126H261.561V183.498H274.311C275.533 183.498 276.415 183.879 276.958 184.639C277.529 185.372 277.814 186.553 277.814 188.183H258.832C258.072 188.183 257.42 187.952 256.877 187.49C256.361 187.001 256.103 186.404 256.103 185.698V162.154ZM289.092 188.183C288.305 188.183 287.626 187.897 287.055 187.327C286.512 186.757 286.241 186.078 286.241 185.291V163.336C286.241 161.978 286.689 160.973 287.585 160.321C288.481 159.643 289.852 159.303 291.699 159.303V183.458H302.697C303.973 183.458 304.937 183.865 305.589 184.68C306.241 185.467 306.566 186.635 306.566 188.183H289.092ZM317.439 188.183C316.652 188.183 315.973 187.897 315.403 187.327C314.86 186.757 314.588 186.078 314.588 185.291V163.336C314.588 161.978 315.036 160.973 315.932 160.321C316.828 159.643 318.2 159.303 320.046 159.303V183.458H331.044C332.321 183.458 333.285 183.865 333.936 184.68C334.588 185.467 334.914 186.635 334.914 188.183H317.439ZM343.75 163.376C343.75 162.1 344.226 161.109 345.176 160.403C346.126 159.67 347.471 159.303 349.208 159.303V184.476C349.208 185.779 348.733 186.784 347.783 187.49C346.832 188.196 345.488 188.549 343.75 188.549V163.376ZM371.001 188.549C368.584 188.549 366.425 188.088 364.525 187.164C362.651 186.241 361.185 184.951 360.125 183.295C359.066 181.638 358.537 179.751 358.537 177.633V170.138C358.537 168.02 359.053 166.146 360.085 164.517C361.144 162.86 362.597 161.584 364.443 160.688C366.29 159.765 368.408 159.303 370.797 159.303C373.187 159.303 375.305 159.67 377.152 160.403C379.025 161.109 380.478 162.1 381.51 163.376C382.542 164.653 383.058 166.119 383.058 167.776C383.058 168.78 382.719 169.568 382.04 170.138C381.388 170.708 380.505 170.993 379.392 170.993C378.849 170.993 378.252 170.912 377.6 170.749C377.654 170.097 377.681 169.459 377.681 168.835C377.681 167.395 377.043 166.228 375.767 165.332C374.491 164.435 372.834 163.987 370.797 163.987C368.788 163.987 367.145 164.558 365.869 165.698C364.62 166.839 363.995 168.319 363.995 170.138V177.633C363.995 179.452 364.647 180.946 365.95 182.113C367.254 183.281 368.937 183.865 371.001 183.865C373.011 183.865 374.64 183.403 375.889 182.48C377.165 181.53 377.803 180.308 377.803 178.814V177.551H374.3C373.269 177.551 372.427 177.158 371.775 176.37C371.123 175.555 370.797 174.51 370.797 173.234H380.696C381.456 173.234 382.067 173.465 382.528 173.926C382.99 174.388 383.221 174.999 383.221 175.759V178.936C383.221 180.81 382.705 182.48 381.673 183.946C380.641 185.386 379.188 186.513 377.315 187.327C375.468 188.142 373.364 188.549 371.001 188.549ZM391.715 162.154C391.715 161.476 391.973 160.892 392.489 160.403C393.032 159.914 393.683 159.67 394.444 159.67H412.611C412.611 161.299 412.325 162.494 411.755 163.254C411.212 163.987 410.316 164.354 409.067 164.354H397.173V171.441H408.008C408.008 173.071 407.723 174.266 407.152 175.026C406.609 175.759 405.713 176.126 404.464 176.126H397.173V183.498H409.922C411.144 183.498 412.027 183.879 412.57 184.639C413.14 185.372 413.425 186.553 413.425 188.183H394.444C393.683 188.183 393.032 187.952 392.489 187.49C391.973 187.001 391.715 186.404 391.715 185.698V162.154ZM421.852 163.621C421.852 162.29 422.3 161.245 423.196 160.484C424.092 159.697 425.301 159.303 426.822 159.303L440.589 180.81L440.997 180.484L439.326 177.714V159.303C441.092 159.303 442.422 159.643 443.318 160.321C444.242 161 444.703 162.005 444.703 163.336V184.843C444.703 185.847 444.269 186.716 443.4 187.449C442.558 188.183 441.58 188.549 440.467 188.549L425.966 165.861L425.559 166.228L427.229 168.997V184.517C427.229 185.847 426.767 186.852 425.844 187.531C424.948 188.21 423.617 188.549 421.852 188.549V163.621ZM465.471 188.549C463.054 188.549 460.895 188.088 458.994 187.164C457.121 186.241 455.654 184.951 454.595 183.295C453.536 181.638 453.007 179.751 453.007 177.633V170.138C453.007 168.02 453.523 166.146 454.554 164.517C455.614 162.86 457.066 161.584 458.913 160.688C460.759 159.765 462.878 159.303 465.267 159.303C467.657 159.303 469.775 159.67 471.622 160.403C473.495 161.109 474.948 162.114 475.98 163.417C477.012 164.693 477.528 166.16 477.528 167.816C477.528 168.821 477.188 169.622 476.509 170.219C475.858 170.79 474.975 171.075 473.862 171.075C473.319 171.075 472.721 170.993 472.07 170.83C472.124 170.179 472.151 169.541 472.151 168.916C472.151 167.477 471.513 166.309 470.237 165.413C468.96 164.517 467.304 164.069 465.267 164.069C463.258 164.069 461.615 164.639 460.339 165.78C459.089 166.893 458.465 168.346 458.465 170.138V177.633C458.465 179.452 459.117 180.932 460.42 182.073C461.723 183.213 463.407 183.783 465.471 183.783C467.508 183.783 469.164 183.335 470.44 182.439C471.717 181.543 472.355 180.389 472.355 178.977C472.355 178.325 472.328 177.701 472.273 177.103C472.952 176.968 473.522 176.9 473.984 176.9C475.125 176.9 476.034 177.198 476.713 177.796C477.392 178.393 477.731 179.208 477.731 180.24C477.731 181.842 477.215 183.281 476.184 184.557C475.152 185.807 473.699 186.784 471.825 187.49C469.979 188.196 467.861 188.549 465.471 188.549ZM486.145 162.154C486.145 161.476 486.403 160.892 486.919 160.403C487.462 159.914 488.113 159.67 488.874 159.67H507.041C507.041 161.299 506.755 162.494 506.185 163.254C505.642 163.987 504.746 164.354 503.497 164.354H491.603V171.441H502.438C502.438 173.071 502.153 174.266 501.582 175.026C501.039 175.759 500.143 176.126 498.894 176.126H491.603V183.498H504.352C505.574 183.498 506.457 183.879 507 184.639C507.57 185.372 507.855 186.553 507.855 188.183H488.874C488.113 188.183 487.462 187.952 486.919 187.49C486.403 187.001 486.145 186.404 486.145 185.698V162.154Z" fill="#EBEBEB"/>
</svg>
